<?xml version="1.0" standalone="no"?>
<!DOCTYPE svg PUBLIC "-//W3C//DTD SVG 20010904//EN"
 "http://www.w3.org/TR/2001/REC-SVG-20010904/DTD/svg10.dtd">
<svg version="1.0" xmlns="http://www.w3.org/2000/svg"
 width="700.000000pt" height="700.000000pt" viewBox="0 0 700.000000 700.000000"
 preserveAspectRatio="xMidYMid meet">
<metadata>
Created by potrace 1.11, written by Peter Selinger 2001-2013
</metadata>
<g transform="translate(0.000000,700.000000) scale(0.100000,-0.100000)"
fill="#000000" stroke="none">
<path d="M3307 6994 c-1 -1 -42 -5 -92 -8 -49 -4 -103 -9 -120 -11 -66 -9
-171 -25 -195 -30 -14 -3 -40 -8 -58 -11 -75 -12 -280 -66 -399 -105 -308 -99
-618 -251 -873 -427 -84 -58 -204 -148 -236 -177 -7 -5 -31 -26 -55 -45 -24
-19 -108 -98 -186 -175 -118 -116 -143 -146 -143 -170 0 -18 43 -104 117 -234
65 -113 123 -215 129 -226 6 -11 34 -60 62 -109 29 -49 52 -90 52 -91 0 -1 23
-42 51 -91 29 -49 61 -105 72 -124 10 -19 58 -102 105 -185 47 -82 94 -166
105 -185 10 -19 36 -64 57 -100 20 -36 49 -85 62 -110 139 -249 164 -278 217
-249 18 10 90 126 232 374 195 342 681 1195 729 1280 13 22 31 54 41 70 10 17
24 41 32 55 7 14 118 210 247 435 128 226 253 444 277 486 49 87 53 116 21
146 -21 19 -35 21 -136 20 -62 0 -114 -2 -115 -3z"/>
<path d="M4234 6908 c-27 -13 -974 -1659 -974 -1693 0 -12 9 -33 19 -46 l19
-24 1592 -1 c1542 0 1593 1 1616 19 38 29 31 65 -32 169 -45 74 -165 250 -206
303 -131 168 -349 398 -498 526 -41 35 -77 66 -80 69 -13 13 -164 124 -235
172 -313 212 -696 389 -1050 483 -121 32 -146 35 -171 23z"/>
<path d="M522 5267 c-33 -35 -177 -327 -237 -482 -107 -275 -163 -487 -204
-767 -18 -124 -21 -149 -28 -268 -12 -197 -6 -532 11 -630 2 -14 7 -54 11 -88
5 -55 22 -159 40 -252 31 -163 80 -323 106 -346 21 -18 48 -19 981 -19 l960 0
24 28 c17 20 23 35 18 50 -5 18 -134 250 -175 317 -29 48 -99 171 -99 175 0 3
-11 24 -26 46 -14 22 -34 57 -46 77 -11 20 -55 98 -98 172 -42 74 -88 155
-102 180 -14 25 -73 128 -132 229 -58 101 -106 184 -106 186 0 2 -35 63 -78
136 -43 74 -81 141 -85 149 -4 8 -17 31 -28 50 -20 34 -245 424 -279 485 -139
248 -335 582 -343 587 -23 15 -64 8 -85 -15z"/>
<path d="M4955 4592 c-173 -5 -175 -26 -31 -276 57 -100 113 -197 124 -217 11
-20 39 -67 61 -104 23 -37 41 -69 41 -71 0 -2 13 -25 29 -52 15 -26 39 -68 53
-93 25 -43 118 -204 440 -764 86 -148 166 -288 178 -310 12 -22 26 -44 30 -50
4 -5 21 -35 37 -65 17 -30 54 -95 83 -145 29 -49 61 -104 70 -121 91 -159 267
-465 281 -489 10 -16 28 -49 40 -72 13 -24 26 -44 31 -44 4 -1 14 -2 21 -3 26
-4 54 17 81 62 77 126 225 463 280 634 50 157 104 377 122 493 5 28 9 52 9 55
1 3 5 32 9 65 5 33 10 69 12 80 25 132 24 674 -1 790 -3 11 -7 45 -10 75 -11
111 -52 321 -94 475 -35 127 -49 145 -120 145 -291 3 -1700 4 -1776 2z"/>
<path d="M5055 2880 c-28 -10 -60 -60 -183 -280 -13 -25 -28 -49 -32 -55 -4
-5 -21 -35 -38 -65 -39 -71 -359 -630 -372 -650 -5 -8 -24 -42 -43 -75 -18
-33 -60 -105 -91 -160 -32 -55 -70 -120 -84 -145 -14 -25 -86 -151 -160 -280
-74 -129 -146 -255 -160 -280 -14 -25 -112 -197 -218 -383 -229 -400 -235
-410 -231 -437 5 -33 34 -60 64 -61 189 -4 346 9 608 51 454 74 927 263 1330
533 80 54 242 172 255 186 3 3 39 35 80 71 110 95 227 208 271 263 45 56 45
73 1 145 -15 26 -31 54 -35 62 -4 8 -15 29 -26 45 -10 17 -28 48 -41 70 -12
22 -91 159 -175 305 -83 146 -163 285 -177 310 -14 25 -58 101 -98 170 -40 69
-84 145 -98 170 -35 62 -253 441 -266 462 -14 23 -56 37 -81 28z"/>
<path d="M552 1862 c-31 -5 -56 -45 -49 -80 3 -16 29 -66 58 -113 480 -777
1242 -1340 2115 -1560 72 -18 97 -21 116 -12 21 9 59 70 195 313 11 19 101
177 200 350 99 173 190 331 200 350 42 72 147 256 163 285 108 188 136 236
157 275 14 25 34 60 45 78 27 45 18 95 -20 111 -21 9 -432 11 -1592 9 -861 -2
-1575 -4 -1588 -6z"/>
</g>
</svg>
