<svg version="1" xmlns="http://www.w3.org/2000/svg" width="933.333" height="933.333" viewBox="0 0 700.000000 700.000000"><path d="M330.7.6c-.1.1-4.2.5-9.2.8-4.9.4-10.3.9-12 1.1-6.6.9-17.1 2.5-19.5 3-1.4.3-4 .8-5.8 1.1-7.5 1.2-28 6.6-39.9 10.5-30.8 9.9-61.8 25.1-87.3 42.7-8.4 5.8-20.4 14.8-23.6 17.7-.7.5-3.1 2.6-5.5 4.5s-10.8 9.8-18.6 17.5c-11.8 11.6-14.3 14.6-14.3 17 0 1.8 4.3 10.4 11.7 23.4 6.5 11.3 12.3 21.5 12.9 22.6.6 1.1 3.4 6 6.2 10.9 2.9 4.9 5.2 9 5.2 9.1 0 .1 2.3 4.2 5.1 9.1 2.9 4.9 6.1 10.5 7.2 12.4 1 1.9 5.8 10.2 10.5 18.5 4.7 8.2 9.4 16.6 10.5 18.5 1 1.9 3.6 6.4 5.7 10 2 3.6 4.9 8.5 6.2 11 13.9 24.9 16.4 27.8 21.7 24.9 1.8-1 9-12.6 23.2-37.4 19.5-34.2 68.1-119.5 72.9-128 1.3-2.2 3.1-5.4 4.1-7 1-1.7 2.4-4.1 3.2-5.5.7-1.4 11.8-21 24.7-43.5 12.8-22.6 25.3-44.4 27.7-48.6 4.9-8.7 5.3-11.6 2.1-14.6-2.1-1.9-3.5-2.1-13.6-2-6.2 0-11.4.2-11.5.3zM423.4 9.2c-2.7 1.3-97.4 165.9-97.4 169.3 0 1.2.9 3.3 1.9 4.6l1.9 2.4 159.2.1c154.2 0 159.3-.1 161.6-1.9 3.8-2.9 3.1-6.5-3.2-16.9-4.5-7.4-16.5-25-20.6-30.3-13.1-16.8-34.9-39.8-49.8-52.6-4.1-3.5-7.7-6.6-8-6.9-1.3-1.3-16.4-12.4-23.5-17.2-31.3-21.2-69.6-38.9-105-48.3-12.1-3.2-14.6-3.5-17.1-2.3zM52.2 173.3c-3.3 3.5-17.7 32.7-23.7 48.2-10.7 27.5-16.3 48.7-20.4 76.7C6.3 310.6 6 313.1 5.3 325c-1.2 19.7-.6 53.2 1.1 63 .2 1.4.7 5.4 1.1 8.8.5 5.5 2.2 15.9 4 25.2 3.1 16.3 8 32.3 10.6 34.6 2.1 1.8 4.8 1.9 98.1 1.9h96l2.4-2.8c1.7-2 2.3-3.5 1.8-5-.5-1.8-13.4-25-17.5-31.7-2.9-4.8-9.9-17.1-9.9-17.5 0-.3-1.1-2.4-2.6-4.6-1.4-2.2-3.4-5.7-4.6-7.7-1.1-2-5.5-9.8-9.8-17.2-4.2-7.4-8.8-15.5-10.2-18-1.4-2.5-7.3-12.8-13.2-22.9-5.8-10.1-10.6-18.4-10.6-18.6 0-.2-3.5-6.3-7.8-13.6-4.3-7.4-8.1-14.1-8.5-14.9-.4-.8-1.7-3.1-2.8-5-2-3.4-24.5-42.4-27.9-48.5-13.9-24.8-33.5-58.2-34.3-58.7-2.3-1.5-6.4-.8-8.5 1.5zM495.5 240.8c-17.3.5-17.5 2.6-3.1 27.6 5.7 10 11.3 19.7 12.4 21.7 1.1 2 3.9 6.7 6.1 10.4 2.3 3.7 4.1 6.9 4.1 7.1 0 .2 1.3 2.5 2.9 5.2 1.5 2.6 3.9 6.8 5.3 9.3 2.5 4.3 11.8 20.4 44 76.4 8.6 14.8 16.6 28.8 17.8 31 1.2 2.2 2.6 4.4 3 5 .4.5 2.1 3.5 3.7 6.5 1.7 3 5.4 9.5 8.3 14.5 2.9 4.9 6.1 10.4 7 12.1 9.1 15.9 26.7 46.5 28.1 48.9 1 1.6 2.8 4.9 4 7.2 1.3 2.4 2.6 4.4 3.1 4.4.4.1 1.4.2 2.1.3 2.6.4 5.4-1.7 8.1-6.2 7.7-12.6 22.5-46.3 28-63.4 5-15.7 10.4-37.7 12.2-49.3.5-2.8.9-5.2.9-5.5.1-.3.5-3.2.9-6.5.5-3.3 1-6.9 1.2-8 2.5-13.2 2.4-67.4-.1-79-.3-1.1-.7-4.5-1-7.5-1.1-11.1-5.2-32.1-9.4-47.5-3.5-12.7-4.9-14.5-12-14.5-29.1-.3-170-.4-177.6-.2zM505.5 412c-2.8 1-6 6-18.3 28-1.3 2.5-2.8 4.9-3.2 5.5-.4.5-2.1 3.5-3.8 6.5-3.9 7.1-35.9 63-37.2 65-.5.8-2.4 4.2-4.3 7.5-1.8 3.3-6 10.5-9.1 16-3.2 5.5-7 12-8.4 14.5-1.4 2.5-8.6 15.1-16 28s-14.6 25.5-16 28c-1.4 2.5-11.2 19.7-21.8 38.3-22.9 40-23.5 41-23.1 43.7.5 3.3 3.4 6 6.4 6.1 18.9.4 34.6-.9 60.8-5.1 45.4-7.4 92.7-26.3 133-53.3 8-5.4 24.2-17.2 25.5-18.6.3-.3 3.9-3.5 8-7.1 11-9.5 22.7-20.8 27.1-26.3 4.5-5.6 4.5-7.3.1-14.5-1.5-2.6-3.1-5.4-3.5-6.2-.4-.8-1.5-2.9-2.6-4.5-1-1.7-2.8-4.8-4.1-7-1.2-2.2-9.1-15.9-17.5-30.5-8.3-14.6-16.3-28.5-17.7-31-1.4-2.5-5.8-10.1-9.8-17-4-6.9-8.4-14.5-9.8-17-3.5-6.2-25.3-44.1-26.6-46.2-1.4-2.3-5.6-3.7-8.1-2.8zM55.2 513.8c-3.1.5-5.6 4.5-4.9 8 .3 1.6 2.9 6.6 5.8 11.3 48 77.7 124.2 134 211.5 156 7.2 1.8 9.7 2.1 11.6 1.2 2.1-.9 5.9-7 19.5-31.3 1.1-1.9 10.1-17.7 20-35s19-33.1 20-35c4.2-7.2 14.7-25.6 16.3-28.5 10.8-18.8 13.6-23.6 15.7-27.5 1.4-2.5 3.4-6 4.5-7.8 2.7-4.5 1.8-9.5-2-11.1-2.1-.9-43.2-1.1-159.2-.9-86.1.2-157.5.4-158.8.6z"/></svg>