<svg xmlns="http://www.w3.org/2000/svg" width="193.03" height="44" viewBox="0 0 193.031 44">
    <defs>
        <style>
            .cls-1{fill:#ffd200;fill-rule:evenodd;filter:url(#filter)}
        </style>
        <filter id="filter" x="663.97" y="1980.97" width="193.03" height="44" filterUnits="userSpaceOnUse">
            <feFlood result="flood" flood-color="#ffd200"/>
            <feComposite result="composite" operator="in" in2="SourceGraphic"/>
            <feBlend result="blend" in2="SourceGraphic"/>
        </filter>
    </defs>
    <path class="cls-1" d="M170.722 0H22.292a3.561 3.561 0 0 0-2.493 1.02L1.017 19.54a3.446 3.446 0 0 0 0 4.92l18.782 18.51a3.518 3.518 0 0 0 2.493 1.02h148.43a3.518 3.518 0 0 0 2.493-1.02l18.783-18.51a3.448 3.448 0 0 0 0-4.92L173.215 1.02A3.561 3.561 0 0 0 170.722 0z"/>
</svg>
