<svg data-name="icon-download" xmlns="http://www.w3.org/2000/svg" viewBox="0 0 79.06 65.8">
    <defs>
        <style>
            .cls-1{fill:#fed308}
        </style>
    </defs>
    <title>
        icon-download
    </title>
    <path class="cls-1" d="M49.51 51.33h-3.18V30.25a2.88 2.88 0 0 0-2.88-2.89h-7.86a2.88 2.88 0 0 0-2.88 2.89v21.08h-3.18a1.87 1.87 0 0 0-1.43 3.08l8.5 10a3.82 3.82 0 0 0 5.82 0l8.5-10a1.87 1.87 0 0 0-1.43-3.08zm0 0"/>
    <path d="M63.23 12.1a1.94 1.94 0 0 1-1.41-.79 17.38 17.38 0 0 0-13.9-7.05h-1.05a2 2 0 0 1-1.3-.4 19.38 19.38 0 0 0-29.19 7.2 2 2 0 0 1-1.5 1.1 17.27 17.27 0 0 0 2.39 34.38h12.25v-6.8H17.27a10.47 10.47 0 1 1 0-20.93h.86a3.4 3.4 0 0 0 3.57-2.56 12.57 12.57 0 0 1 21-5.94 3.4 3.4 0 0 0 3.07.89 10.44 10.44 0 0 1 11.56 5.79 3.4 3.4 0 0 0 3.4 1.91c.36 0 .71-.05 1.05-.05a10.47 10.47 0 0 1 0 20.93H49.54v6.8h12.25a17.27 17.27 0 0 0 1.44-34.48zm0 0"/>
</svg>
