<svg xmlns="http://www.w3.org/2000/svg" viewBox="0 0 595.3 841.9">
    <path d="M353.6 367.4h-84.1c-1.6 0-2.9 1.3-2.9 2.9 0 1.6 1.3 2.9 2.9 2.9h81.2v95.1h-81.2c-1.6 0-2.9 1.3-2.9 2.9 0 1.6 1.3 2.9 2.9 2.9h84.1c1.6 0 2.9-1.3 2.9-2.9V370.3c0-1.6-1.3-2.9-2.9-2.9zm0 0"/>
    <path d="M281.2 438.2c-1.1 1.1-1.1 3 0 4.1.6.6 1.3.8 2 .8s1.5-.3 2-.8l17.8-17.8c1.1-1.1 1.1-3 0-4.1l-17.8-17.8c-1.1-1.1-2.9-1.1-4.1 0-1.1 1.1-1.1 2.9 0 4.1l12.9 12.9h-53.9c-1.6 0-2.9 1.3-2.9 2.9 0 1.6 1.3 2.9 2.9 2.9H294l-12.8 12.8zm0 0"/>
</svg>
