<svg data-name="icon-get" xmlns="http://www.w3.org/2000/svg" viewBox="0 0 83.98 92.53">
    <defs>
        <style>
            .cls-1{fill:none}.cls-2{clip-path:url(#clip-path)}.cls-3{fill:#fed308}
        </style>
        <clipPath id="clip-path" transform="translate(-125.73 -650.61)">
            <path class="cls-1" d="M125.73 650.46h84v92.67h-84z"/>
        </clipPath>
    </defs>
    <title>
        icon-get
    </title>
    <g class="cls-2">
        <path d="M33.5 71.34a10.87 10.87 0 1 0 13.77 6.91 10.87 10.87 0 0 0-13.77-6.91zm5.11 15.48a5.43 5.43 0 1 1 3.46-6.86 5.43 5.43 0 0 1-3.46 6.86z"/>
        <path class="cls-3" d="M44.4 65.32a1.38 1.38 0 0 0 1.75.88l35.47-11.7a1.38 1.38 0 0 0 .88-1.75L71.27 18.59a1.38 1.38 0 0 0-1.75-.88L34.01 29.39a1.38 1.38 0 0 0-.88 1.75zm10.06-33.53l12.07 6.6-2 3.67-5.26-2.83 4.49 13.6-4.3 1.42-4.49-13.6-2.49 5.42-3.81-1.75z"/>
        <path d="M83.84 63.47a2.77 2.77 0 0 0-3.49-1.76l-33.19 11a13.55 13.55 0 0 1 2.7 4.72c0 .06 0 .13.05.19l32.17-10.61a2.77 2.77 0 0 0 1.76-3.54zm-43.48 5.01L20.1 7.08A10.31 10.31 0 1 0 .52 13.54a2.77 2.77 0 1 0 5.25-1.73 4.78 4.78 0 0 1 9.07-3l19.61 59.45a13.54 13.54 0 0 1 5.91.22z"/>
    </g>
</svg>
