<svg data-name="icon-design" xmlns="http://www.w3.org/2000/svg" viewBox="0 0 80 75.78">
    <defs>
        <style>
            .cls-1{fill:none}.cls-2{clip-path:url(#clip-path)}.cls-3{fill:#fed204}
        </style>
        <clipPath id="clip-path" transform="translate(-335 -629)">
            <path class="cls-1" d="M335 629h79.92v76H335z"/>
        </clipPath>
    </defs>
    <title>
        icon-design
    </title>
    <path d="M50.34 73.68a3.91 3.91 0 0 1-1.54-2.55l-.52-3.32H31.71l-.52 3.32a3.9 3.9 0 0 1-1.53 2.55c-1.39 1-2.48 1.89-1.39 2s11 0 11.73 0 10.67.14 11.72 0 0-1-1.38-2zm0 0"/>
    <g class="cls-2">
        <path class="cls-3" d="M21.33 47.12c4.43 0 5-1.1 6.42-5.54 2.66-7 14.65 1.84 7.22 4.91s-18.07.67-13.64.64zm0 0"/>
        <path class="cls-3" d="M66.73.89C64.58-.84 61.02.02 58.78 2.8L36.07 35.07c-2.24 2.78-2.23 2.25-.09 4s1.63 1.86 3.88-.93l26.7-29.05c2.24-2.79 2.32-6.45.17-8.18zm-5.84 3.86a12.15 12.15 0 0 0-1.44-1.27 5.13 5.13 0 0 1 4.92-2.22c-3.09 1.83-3.48 3.49-3.48 3.49zm0 0"/>
        <path d="M76.8 11.8h-10l-4.41 4.8h12.8V55H4.8V16.6h41l3.38-4.8H3.2A3.2 3.2 0 0 0 0 15v46.4a3.2 3.2 0 0 0 3.2 3.2h73.6a3.2 3.2 0 0 0 3.2-3.2V15a3.2 3.2 0 0 0-3.2-3.2zm0 0"/>
    </g>
</svg>
