<svg data-name="icon-pay" xmlns="http://www.w3.org/2000/svg" viewBox="0 0 114.85 100.28">
    <defs>
        <style>
            .cls-1{fill:none}.cls-2{fill:#fed308}.cls-3{clip-path:url(#clip-path)}
        </style>
        <clipPath id="clip-path" transform="translate(-454.78 -674.08)">
            <path class="cls-1" d="M454.78 674.08h114.89v100.35H454.78z"/>
        </clipPath>
    </defs>
    <title>
        icon-pay
    </title>
    <path class="cls-2" d="M85.93 28.02c-3.43-1.38-4.42-2.21-4.42-3.71 0-1.2.91-2.61 3.48-2.61a9.66 9.66 0 0 1 4 .9 1.26 1.26 0 0 0 .59.15 1.19 1.19 0 0 0 1.12-.77l.62-1.59a1 1 0 0 0-.53-1.27 24.21 24.21 0 0 0-4.16-1.09.21.21 0 0 1-.2-.22V15.5a1.28 1.28 0 0 0-1.3-1.26h-1.12a1.28 1.28 0 0 0-1.29 1.26v2.42c0 .19-.2.27-.28.28-3.45.82-5.61 3.35-5.61 6.53 0 4 3.28 5.77 6.83 7.12 2.84 1.11 4 2.24 4 3.9s-1.64 3.06-4 3.06a14 14 0 0 1-4.74-1.28 1.27 1.27 0 0 0-.55-.12 1.21 1.21 0 0 0-1.14.79l-.6 1.61a1 1 0 0 0 .53 1.31 21.07 21.07 0 0 0 5 1.4s.24.07.24.25v2.42a1.28 1.28 0 0 0 1.3 1.26h1.16a1.28 1.28 0 0 0 1.3-1.26v-2.55a.24.24 0 0 1 .21-.27c3.67-.83 5.94-3.51 5.94-6.89s-1.93-5.71-6.44-7.49zm0 0"/>
    <g class="cls-3">
        <path class="cls-2" d="M84.48 0a30.37 30.37 0 1 0 30.37 30.37A30.37 30.37 0 0 0 84.48 0zm0 53.7a23.33 23.33 0 1 1 23.33-23.33A23.33 23.33 0 0 1 84.48 53.7zm0 0"/>
        <path d="M108.68 75.46a77.27 77.27 0 0 1-24.2 8.25c-7.88 1.24-22.71-1.74-22.71-5.27 0-1.33 13 3.29 20.87 1.19 6-1.61 5.18-7.25 1.89-8s-22.37-7.74-30.53-8c-3.85-.11-13.34 1.34-17.93 2.09-1.57.26-2.56.23-2.66 1.73-.46 7-1.36 21.31-1.85 28.79 0 .16.21 2.28 2 .79 1.92-1.64 4.61-3.45 7.1-2.89 3.91.89 37.69 7.08 42.35 6 6.67-1.55 25.54-12.73 29.16-16.21 5.61-5.39 1.25-11.08-3.45-8.49zm-84.59-10l-17.7-.87a3.19 3.19 0 0 0-3.1 2.29L.07 96.1a1.93 1.93 0 0 0 1.87 2.51h19.61a2.61 2.61 0 0 0 2.68-2.39l2.15-28.15a2.41 2.41 0 0 0-2.29-2.6zM13.67 94.73a4.89 4.89 0 1 1 4.89-4.89 4.89 4.89 0 0 1-4.89 4.89zm0 0"/>
    </g>
</svg>
