<svg xmlns="http://www.w3.org/2000/svg" viewBox="0 0 133.3 116.1">
    <path d="M122.6 4.5H38.5c-1.6 0-2.9 1.3-2.9 2.9 0 1.6 1.3 2.9 2.9 2.9h81.2v95.1H38.5c-1.6 0-2.9 1.3-2.9 2.9 0 1.6 1.3 2.9 2.9 2.9h84.1c1.6 0 2.9-1.3 2.9-2.9V7.4c0-1.6-1.3-2.9-2.9-2.9zm0 0"/>
    <path d="M50.2 75.3c-1.1 1.1-1.1 3 0 4.1.6.6 1.3.8 2 .8s1.5-.3 2-.8L72 61.6c1.1-1.1 1.1-3 0-4.1L54.3 39.8c-1.1-1.1-2.9-1.1-4.1 0-1.1 1.1-1.1 2.9 0 4.1l12.9 12.9H9.2c-1.6 0-2.9 1.3-2.9 2.9 0 1.6 1.3 2.9 2.9 2.9h53.9L50.2 75.3zm0 0"/>
</svg>
