<svg data-name="icon-get" xmlns="http://www.w3.org/2000/svg" xmlns:xlink="http://www.w3.org/1999/xlink"
     viewBox="0 0 83.98 92.53">
    <defs>
        <style>.cls-1{fill:none;}.cls-2{clip-path:url(#clip-path);}.cls-3{fill:#fed308;}</style>
        <clipPath id="clip-path" transform="translate(-125.73 -650.61)">
            <rect class="cls-1" x="125.73" y="650.46" width="84" height="92.67"/>
        </clipPath>
    </defs>
    <title>icon-get</title>
    <g class="cls-2">
        <path d="M159.23,721.95A10.87,10.87,0,1,0,173,728.86,10.87,10.87,0,0,0,159.23,721.95Zm5.11,15.48a5.43,5.43,0,1,1,3.46-6.86A5.43,5.43,0,0,1,164.34,737.43Z"
              transform="translate(-125.73 -650.61)"/>
        <path class="cls-3"
              d="M170.13,715.93a1.38,1.38,0,0,0,1.75.88l35.47-11.7a1.38,1.38,0,0,0,.88-1.75L197,669.2a1.38,1.38,0,0,0-1.75-.88L159.74,680a1.38,1.38,0,0,0-.88,1.75Zm10.06-33.53L192.26,689l-2,3.67L185,689.84l4.49,13.6-4.3,1.42-4.49-13.6-2.49,5.42-3.81-1.75Z"
              transform="translate(-125.73 -650.61)"/>
        <path d="M209.57,714.08a2.77,2.77,0,0,0-3.49-1.76l-33.19,11a13.55,13.55,0,0,1,2.7,4.72c0,.06,0,.13.05.19l32.17-10.61A2.77,2.77,0,0,0,209.57,714.08Z"
              transform="translate(-125.73 -650.61)"/>
        <path d="M166.09,719.09l-20.26-61.4a10.31,10.31,0,1,0-19.58,6.46,2.77,2.77,0,1,0,5.25-1.73,4.78,4.78,0,0,1,9.07-3l19.61,59.45A13.54,13.54,0,0,1,166.09,719.09Z"
              transform="translate(-125.73 -650.61)"/>
    </g>
</svg>