<svg data-name="icon-design" xmlns="http://www.w3.org/2000/svg" xmlns:xlink="http://www.w3.org/1999/xlink"
     viewBox="0 0 80 75.78">
    <defs>
        <style>.cls-1{fill:none;}.cls-2{clip-path:url(#clip-path);}.cls-3{fill:#fed204;}</style>
        <clipPath id="clip-path" transform="translate(-335 -629)">
            <rect class="cls-1" x="335" y="629" width="79.92" height="76"/>
        </clipPath>
    </defs>
    <title>icon-design</title>
    <path d="M385.34,702.68a3.91,3.91,0,0,1-1.54-2.55l-.52-3.32H366.71l-.52,3.32a3.9,3.9,0,0,1-1.53,2.55c-1.39,1-2.48,1.89-1.39,2s11,0,11.73,0,10.67.14,11.72,0,0-1-1.38-2Zm0,0"
          transform="translate(-335 -629)"/>
    <g class="cls-2">
        <path class="cls-3"
              d="M356.33,676.12c4.43,0,5-1.1,6.42-5.54,2.66-7,14.65,1.84,7.22,4.91s-18.07.67-13.64.64Zm0,0"
              transform="translate(-335 -629)"/>
        <path class="cls-3"
              d="M401.73,629.89c-2.15-1.73-5.71-.87-7.95,1.91l-22.71,32.27c-2.24,2.78-2.23,2.25-.09,4s1.63,1.86,3.88-.93l26.7-29.05c2.24-2.79,2.32-6.45.17-8.18Zm-5.84,3.86a12.15,12.15,0,0,0-1.44-1.27,5.13,5.13,0,0,1,4.92-2.22c-3.09,1.83-3.48,3.49-3.48,3.49Zm0,0"
              transform="translate(-335 -629)"/>
        <path d="M411.8,640.8h-10l-4.41,4.8h12.8V684H339.8V645.6h41l3.38-4.8H338.2A3.2,3.2,0,0,0,335,644v46.4a3.2,3.2,0,0,0,3.2,3.2h73.6a3.2,3.2,0,0,0,3.2-3.2V644a3.2,3.2,0,0,0-3.2-3.2Zm0,0"
              transform="translate(-335 -629)"/>
    </g>
</svg>