<svg data-name="logo-photobook" xmlns="http://www.w3.org/2000/svg" viewBox="0 0 114.85 100.28">
    <title>
        logo-photobook
    </title>
    <path fill-rule="evenodd" d="M161.803 17.876c.151.076.202.204.202.383 0 .281-.101.409-.228.409h-3.47c-.151 0-.329-.102-.456-.205-1.342-1.354-2.837-3.093-4.103-4.677-1.773-2.224-3.166-3.63-3.723-3.63h-.507c.076.92.102 2.198.102 3.399v4.883c0 .102-.127.23-.228.23h-2.787c-.126 0-.227-.128-.227-.23V.877c0-.128.101-.257.227-.257h2.787c.101 0 .228.129.228.257v4.217c0 1.074-.026 2.173-.077 3.042h.482c.431 0 1.697-1.303 3.445-3.425 1.012-1.202 2.228-2.684 3.368-3.886.127-.127.253-.205.405-.205h3.242c.127 0 .203.129.203.282 0 .128-.051.23-.127.281-.659.358-2.381 2.148-4.609 4.627-1.318 1.406-2.558 2.684-3.116 3.016.507.205 1.951 1.79 3.673 3.707 2.077 2.352 4.534 4.908 5.294 5.343zM134.387 19c-5.04 0-9.118-3.783-9.118-9.637 0-5.726 4.229-9.331 9.118-9.331 4.863 0 9.118 3.503 9.118 9.331 0 5.777-3.85 9.637-9.118 9.637zm.025-16.334c-3.292 0-5.572 2.122-5.572 6.697 0 4.192 1.95 7.004 5.547 7.004 3.723 0 5.547-2.786 5.547-7.004 0-4.55-2.28-6.697-5.522-6.697zM114.089 19c-5.04 0-9.119-3.783-9.119-9.637 0-5.726 4.23-9.331 9.119-9.331 4.863 0 9.117 3.503 9.117 9.331 0 5.777-3.849 9.637-9.117 9.637zm.025-16.334c-3.293 0-5.573 2.122-5.573 6.697 0 4.192 1.951 7.004 5.548 7.004 3.722 0 5.546-2.786 5.546-7.004 0-4.55-2.279-6.697-5.521-6.697zm-11.002 11.222c0 2.939-2.203 4.78-5.978 4.78h-7.167c-.127 0-.228-.128-.228-.23V.877c0-.128.101-.257.228-.257h6.129c4.61 0 5.927 2.25 5.927 4.27 0 2.173-1.849 3.604-3.875 4.064 2.609.205 4.964 2.147 4.964 4.934zm-4.407-8.334c0-1.712-.962-2.557-3.242-2.557-.76 0-1.798-.024-2.583-.076.076.921.101 1.79.101 2.659 0 .869-.025 1.841-.101 2.684a20.17 20.17 0 0 1 2.203-.102c2.584 0 3.622-1.048 3.622-2.608zm-2.938 4.781a52.44 52.44 0 0 1-2.887-.077c.076.946.101 1.968.101 3.042 0 1.022-.025 2.019-.101 3.042a86.376 86.376 0 0 1 3.672-.077c2.229 0 3.242-.946 3.242-2.837 0-1.866-1.164-3.093-4.027-3.093zm-9.958 3.798l-4.214-7.36a.193.193 0 0 1 .166-.289h5.03c.084 0 .158.055.183.136.272.884.418 1.823.418 2.797a9.447 9.447 0 0 1-1.252 4.716.19.19 0 0 1-.331 0zm-8.255-9.128a.192.192 0 0 1-.165-.289L79.904.318a.19.19 0 0 1 .208-.091 9.353 9.353 0 0 1 6.036 4.488.192.192 0 0 1-.166.288l-8.428.002zm-3.529 2.643a.19.19 0 0 1-.331 0l-2.513-4.394a.195.195 0 0 1 .025-.228A9.268 9.268 0 0 1 78.06-.002h.004c.146 0 .237.161.164.289l-4.203 7.361zm.339 4.708h-5.032a.192.192 0 0 1-.183-.136 9.498 9.498 0 0 1-.42-2.803c0-1.719.456-3.33 1.253-4.718a.19.19 0 0 1 .331 0l4.216 7.368a.192.192 0 0 1-.165.289zm-9.186-9.153c-1.115 0-2.204-.027-3.317-.103.05.945.075 1.918.075 2.863v12.475c0 .102-.127.23-.228.23h-2.76c-.127 0-.228-.128-.228-.23V5.912c0-.945.024-1.918.076-2.812a39.927 39.927 0 0 1-3.014.103c-1.165 0-2.052.051-3.217.051-.127 0-.202-.078-.178-.205l.329-2.198c.026-.153.077-.231.178-.231H67.99c.126 0 .177.078.177.205v2.25c0 .101-.051.179-.177.179-.861 0-1.925-.051-2.812-.051zM42.144 19c-5.04 0-9.119-3.783-9.119-9.637 0-5.726 4.23-9.331 9.119-9.331 4.863 0 9.117 3.503 9.117 9.331 0 5.777-3.849 9.637-9.117 9.637zm.025-16.334c-3.293 0-5.573 2.122-5.573 6.697 0 4.192 1.951 7.004 5.548 7.004 3.722 0 5.546-2.786 5.546-7.004 0-4.55-2.279-6.697-5.521-6.697zM27.038 18.668c-.127 0-.228-.128-.228-.23v-4.473c0-1.202 0-2.429.05-3.579-1.013.051-1.621.051-2.482.051h-3.926c-.861 0-1.494 0-2.507-.051.05 1.15.076 2.377.076 3.579v4.473c0 .102-.127.23-.228.23h-2.786c-.127 0-.228-.128-.228-.23V.877c0-.128.101-.257.228-.257h2.786c.101 0 .228.129.228.257v3.757c0 1.074-.026 2.173-.076 3.195a39.83 39.83 0 0 1 2.558-.076h3.825c.911 0 1.747.025 2.532.076-.05-1.022-.05-2.121-.05-3.195V.877c0-.128.101-.257.228-.257h2.761c.101 0 .228.129.228.257v17.561c0 .102-.127.23-.228.23h-2.761zM5.602 12.073c-.988 0-1.823-.026-2.457-.077.076.895.101 2.147.101 3.349v3.093c0 .102-.126.23-.227.23H.232c-.127 0-.227-.128-.227-.23V.953C.005.774.131.62.232.62h5.649c4.406 0 6.484 2.634 6.484 5.727 0 3.502-2.381 5.726-6.763 5.726zm.026-9.049a39.09 39.09 0 0 1-2.458-.077c.051.844.076 2.377.076 3.323 0 1.099-.025 2.608-.076 3.502.659-.051 1.47-.051 2.103-.051 2.457 0 3.723-1.022 3.723-3.349 0-1.942-.963-3.348-3.368-3.348zm72.928 10.804c.147 0 .239.161.166.29l-2.515 4.395a.19.19 0 0 1-.208.091 9.352 9.352 0 0 1-6.022-4.479.193.193 0 0 1 .165-.289l8.414-.008zm3.54-2.644a.19.19 0 0 1 .331 0l2.514 4.395a.193.193 0 0 1-.025.227 9.266 9.266 0 0 1-6.856 3.029h-.013a.193.193 0 0 1-.164-.289l4.213-7.362z"/>
</svg>
