<svg xmlns="http://www.w3.org/2000/svg" viewBox="0 0 100.1 100.3">
    <title>
        logo-photobook favicon
    </title>
    <path d="M91.5 75.2L69 36c-.3-.5-.1-1.1.4-1.4.2-.1.3-.1.5-.1h26.7c.4 0 .8.3 1 .7 1.4 4.7 2.2 9.7 2.2 14.9 0 8.8-2.3 17.4-6.7 25.1-.3.5-.9.7-1.4.4 0-.1-.2-.3-.2-.4zM47.6 26.6c-.6 0-1-.5-1-1 0-.2 0-.4.1-.5L60.1 1.7c.2-.4.7-.6 1.1-.5C74.7 4.3 86.4 13 93.3 25.1c.3.5.1 1.1-.4 1.4-.2.1-.3.1-.5.1H47.6zM28.8 40.7c-.3.5-.9.7-1.4.4-.2-.1-.3-.2-.4-.4L13.7 17.3c-.2-.4-.2-.9.1-1.2C23.1 5.8 36.4 0 50.2 0c.8 0 1.3.9.9 1.5L28.8 40.7zm1.8 25H3.8c-.4 0-.8-.3-1-.7C1.3 60.2.6 55.1.6 50.1.6 40.9 3 32.4 7.3 25c.3-.5.9-.7 1.4-.4.1.1.3.2.3.4l22.4 39.2c.3.5.1 1.1-.4 1.4-.1.1-.2.1-.4.1zm22.3 7.8c.8 0 1.3.9.9 1.5L40.4 98.5c-.2.4-.7.6-1.1.5-13.5-3.1-25.1-11.8-32-23.8-.3-.6-.2-1.2.3-1.5.2-.1.3-.1.5-.1l44.8-.1zm18.8-14c.3-.5.9-.7 1.4-.4.2.1.3.2.4.4l13.4 23.4c.2.4.2.9-.1 1.2-9.3 10.3-22.6 16.1-36.5 16.1h-.1c-.6 0-1-.5-1-1 0-.2 0-.3.1-.5 0-.1 22.4-39.2 22.4-39.2z"/>
</svg>
